<?xml version="1.0" encoding="UTF-8"?>
<svg version="1.1" xmlns="http://www.w3.org/2000/svg" width="500" height="500">
<path d="M0 0 C1.7546015 1.1441603 3.50983891 2.28734586 5.265625 3.4296875 C8.14062011 5.30153774 11.0142991 7.17528111 13.88452148 9.05444336 C20.97281998 13.69408836 28.10288551 18.26413116 35.25 22.8125 C45.49391217 29.33868773 55.62229027 36.0253739 65.70410156 42.7980957 C71.46852372 46.6658626 77.26539763 50.46475414 83.13232422 54.17504883 C91.98520878 59.80890819 100.72736653 65.61865033 109.49256897 71.3875885 C113.38392571 73.94633665 117.29002402 76.48059532 121.20703125 79 C134.76189894 87.7701052 147.9688839 96.36466332 152.55007935 112.79258728 C153.49883709 117.44740782 153.46880395 122.19848194 153.58984375 126.93359375 C153.62665756 128.14792587 153.66347137 129.362258 153.70140076 130.61338806 C154.16845436 147.17095059 154.35384047 163.73518963 154.53242874 180.29789352 C154.56284666 183.09436993 154.59462723 185.89082825 154.62667847 188.68728638 C155.09701512 230.12464831 155.10868979 271.56060052 155 313 C151.43279126 311.61605712 148.3799992 310.09222622 145.18359375 307.98046875 C144.26465332 307.37686523 143.34571289 306.77326172 142.39892578 306.15136719 C141.42165527 305.50329102 140.44438477 304.85521484 139.4375 304.1875 C137.36079823 302.8214304 135.28397309 301.45554832 133.20703125 300.08984375 C132.16498535 299.4026123 131.12293945 298.71538086 130.04931641 298.00732422 C125.58661211 295.06958565 121.10677986 292.15852059 116.625 289.25 C115.80725098 288.71866455 114.98950195 288.1873291 114.14697266 287.63989258 C106.10529131 282.41529412 98.05341326 277.20648845 90 272 C86.87482331 269.97943976 83.74986131 267.95854795 80.625 265.9375 C79.90481689 265.4719873 79.18463379 265.00647461 78.44262695 264.52685547 C77.77320068 264.0938916 77.10377441 263.66092773 76.4140625 263.21484375 C75.8257666 262.83448975 75.2374707 262.45413574 74.63134766 262.06225586 C73.0804326 261.05237388 71.5398999 260.02659993 70 259 C69.79109192 255.99536133 69.79109192 255.99536133 70.02661133 252.08203125 C70.06518753 251.3693811 70.10376373 250.65673096 70.14350891 249.92248535 C70.27532627 247.5514269 70.42886486 245.18226718 70.58203125 242.8125 C70.67749433 241.15462639 70.77143972 239.49666475 70.86393738 237.83862305 C71.11208924 233.45194161 71.37790606 229.06651527 71.64825439 224.68115234 C72.07466599 217.72039107 72.47508075 210.75810109 72.87445641 203.79574585 C73.01508543 201.38859907 73.16346836 198.98203571 73.31318665 196.57543945 C73.78285682 188.81541794 74.10635572 181.06785755 74.1628418 173.29296875 C74.17276311 172.56370682 74.18268442 171.83444489 74.19290638 171.08308411 C74.19427082 159.79918769 70.04729299 148.22673789 62.10766602 140.05151367 C56.32712625 134.87606232 50.214259 130.70164165 43.625 126.625 C41.40861943 125.23152397 39.19355202 123.83618526 36.98046875 122.4375 C36.41173538 122.07886871 35.84300201 121.72023743 35.2570343 121.35073853 C28.73843669 117.22688763 22.34010752 112.92574825 15.9375 108.625 C7.47718186 102.95033088 -1.01896444 97.36047398 -9.70703125 92.0390625 C-12.75058739 90.15444055 -15.71463835 88.1807168 -18.6875 86.1875 C-30.60242294 78.64257125 -43.32835322 75.17577051 -57.26171875 78.23046875 C-72.40234333 82.48539463 -86.70199436 91.12594486 -100.52603149 98.45350647 C-108.0762376 102.45307589 -115.66120615 106.3612485 -123.32421875 110.140625 C-124.17770401 110.56225418 -125.03118927 110.98388336 -125.91053772 111.41828918 C-129.38799918 113.13453407 -132.86644061 114.84861661 -136.3503418 116.55175781 C-138.94951687 117.82398436 -141.54340846 119.10649485 -144.13671875 120.390625 C-144.9107756 120.76576233 -145.68483246 121.14089966 -146.48234558 121.52740479 C-154.13380135 125.33485669 -160.69598717 129.46797755 -165 137 C-168.12150681 136.37822054 -170.30988761 135.33840193 -172.95703125 133.5859375 C-173.72764893 133.0801416 -174.4982666 132.5743457 -175.29223633 132.05322266 C-176.12392334 131.49940918 -176.95561035 130.9455957 -177.8125 130.375 C-179.62494715 129.18221136 -181.43744928 127.98950626 -183.25 126.796875 C-184.19488281 126.17232422 -185.13976562 125.54777344 -186.11328125 124.90429688 C-190.83304629 121.79078475 -195.57398045 118.7098597 -200.3125 115.625 C-206.21450881 111.77757628 -212.11400406 107.9263818 -218.0078125 104.06640625 C-228.92970414 96.91884736 -239.89044719 89.85277205 -251 83 C-247.09689968 74.12920723 -238.26904105 70.30637384 -229.8125 66.75 C-228.08507568 66.00254517 -228.08507568 66.00254517 -226.32275391 65.23999023 C-222.9779508 63.79550875 -219.62401649 62.37345197 -216.26727295 60.95697021 C-213.88699583 59.95230322 -211.50808791 58.9444458 -209.12939453 57.93603516 C-201.77647729 54.82033282 -194.42061821 51.71168218 -187.05957031 48.61523438 C-173.03642409 42.71578397 -159.04159957 36.75302871 -145.0625 30.75 C-124.90887347 22.09707763 -104.73682949 13.48813954 -84.55493164 4.90136719 C-83.48541763 4.44618713 -82.41590363 3.99100708 -81.3139801 3.52203369 C-79.22182514 2.63189026 -77.12941349 1.74234984 -75.03672791 0.85345459 C-69.9944954 -1.29014559 -64.95915796 -3.44784495 -59.93554688 -5.63476562 C-58.97372498 -6.0519989 -58.01190308 -6.46923218 -57.02093506 -6.89910889 C-55.21887505 -7.68178434 -53.4184971 -8.46834909 -51.62017822 -9.25958252 C-31.85588786 -17.83015855 -16.72237609 -11.01379717 0 0 Z " fill="#272928" transform="translate(301,16)"/>
<path d="M0 0 C1.26446238 0.62020705 2.52753799 1.24324181 3.79003906 1.86743164 C4.49356506 2.21407364 5.19709106 2.56071564 5.92193604 2.91786194 C9.01759738 4.5299071 11.8800262 6.46173769 14.75 8.4375 C16.06303668 9.32665218 17.37688214 10.21461082 18.69140625 11.1015625 C19.38637207 11.57110352 20.08133789 12.04064453 20.79736328 12.52441406 C24.73390563 15.16157455 28.71149566 17.73538143 32.6875 20.3125 C33.52869385 20.85817627 34.3698877 21.40385254 35.23657227 21.96606445 C36.95963676 23.08358226 38.68286379 24.20084949 40.40625 25.31787109 C43.82877452 27.53748649 47.24828299 29.76172325 50.66772461 31.98608398 C53.96535704 34.13093492 57.26404047 36.2741651 60.56298828 38.41699219 C62.20734657 39.48511673 63.85154873 40.55348168 65.49560547 41.62207031 C67.87135709 43.16581558 70.24803856 44.70811838 72.625 46.25 C73.34196045 46.71615723 74.0589209 47.18231445 74.79760742 47.66259766 C78.31967939 49.96677087 78.31967939 49.96677087 82 52 C81.34623138 71.76150014 80.36072392 91.49112932 79.22680664 111.23022461 C79.02262111 114.80049325 78.82176174 118.37093846 78.62109375 121.94140625 C78.55860947 123.00815079 78.49612518 124.07489532 78.43174744 125.17396545 C77.4801836 142.1383076 78.74264048 156.1289164 88.78515625 170.56640625 C91.38893159 173.42734458 94.26289056 175.43970799 97.5 177.5 C98.15379639 177.92595459 98.80759277 178.35190918 99.48120117 178.79077148 C100.90484131 179.71689315 102.33096863 180.63920026 103.75927734 181.55810547 C106.01781808 183.01146585 108.26949815 184.47491409 110.51953125 185.94140625 C113.81914339 188.09107078 117.12154606 190.23635495 120.42578125 192.37890625 C126.62751389 196.40349433 132.81378233 200.45161986 139 204.5 C147.52230119 210.07634537 156.05203885 215.64093432 164.59375 221.1875 C170.90105387 225.28368119 177.20151708 229.39026997 183.5 233.5 C190.66241202 238.17323696 197.82819275 242.84119401 205 247.5 C213.15095513 252.79486045 221.29330461 258.10282192 229.43359375 263.4140625 C235.6184738 267.44876277 241.80734192 271.47724931 248 275.5 C256.15095513 280.79486045 264.29330461 286.10282192 272.43359375 291.4140625 C278.61847399 295.4487629 284.80739754 299.47716348 291 303.5 C301.17335538 310.11042663 311.34313311 316.72621388 321.49658203 323.3671875 C323.70004671 324.80436048 325.90904238 326.2323497 328.12109375 327.65625 C329.76271484 328.72359375 329.76271484 328.72359375 331.4375 329.8125 C332.34371094 330.39644531 333.24992187 330.98039062 334.18359375 331.58203125 C334.78300781 332.04996094 335.38242187 332.51789063 336 333 C336 333.66 336 334.32 336 335 C329.28762599 337.86114989 322.57505523 340.7218377 315.86225414 343.58198547 C312.74295786 344.91105138 309.62372175 346.24025804 306.50463867 347.56982422 C299.41545197 350.59153833 292.32506494 353.61040189 285.23284912 356.625 C283.14747494 357.51195432 281.06252262 358.39990148 278.97808838 359.2890625 C276.31596206 360.4245856 273.65235409 361.55655298 270.98828125 362.6875 C269.84192451 363.17802856 269.84192451 363.17802856 268.67240906 363.6784668 C257.71941853 368.31402489 245.23120083 368.820023 234.02734375 364.50390625 C228.3686015 361.69278913 223.28523711 358.08392462 218.125 354.46679688 C214.30567409 351.83047908 210.39853551 349.32949893 206.5 346.8125 C204.78752704 345.70218277 203.07529258 344.59149763 201.36328125 343.48046875 C200.049646 342.628479 200.049646 342.628479 198.70947266 341.75927734 C194.0309432 338.72147925 189.35929161 335.67314607 184.6875 332.625 C183.72779297 331.99891846 182.76808594 331.37283691 181.77929688 330.7277832 C179.8272807 329.45431106 177.87529511 328.18079205 175.92333984 326.90722656 C173.02850492 325.018597 170.13344343 323.13031536 167.23828125 321.2421875 C166.29114258 320.62448486 165.34400391 320.00678223 164.36816406 319.37036133 C162.45484322 318.12266377 160.54143164 316.87510534 158.62792969 315.62768555 C153.82112529 312.49378954 149.01616767 309.35713082 144.21484375 306.21484375 C134.93151184 300.14334389 125.6267952 294.11377102 116.25 288.1875 C107.19097416 282.45964007 98.26832731 276.53962434 89.36709595 270.57131958 C82.78301401 266.15850155 76.18607827 261.78355534 69.4375 257.625 C62.58646051 253.4032303 55.88705394 248.98091991 49.2109375 244.48828125 C45.79292943 242.19034068 42.35862208 239.91909244 38.91160583 237.66488647 C36.47973941 236.07357336 34.05221565 234.4756977 31.62490845 232.87744141 C30.43131053 232.09378164 29.23585486 231.31294303 28.03842163 230.53515625 C16.43086934 222.99080811 5.15056859 214.32076633 2 200 C0.92576322 190.72816791 0.79010929 181.43085487 0.68359375 172.109375 C0.66276869 170.52660853 0.64172495 168.94384492 0.6204834 167.36108398 C0.56441547 163.05746035 0.51499415 158.75378472 0.46757126 154.45005798 C0.43739593 151.74065592 0.4055327 149.03127798 0.37332153 146.32189941 C-0.19915825 97.54978562 -0.09701758 48.77454466 0 0 Z " fill="#0D5D8F" transform="translate(45,130)"/>
<path d="M0 0 C1.49341588 0.98318487 2.98690864 1.96625298 4.48046875 2.94921875 C5.25181152 3.4601709 6.0231543 3.97112305 6.81787109 4.49755859 C10.79993402 7.12737761 14.8082446 9.71665703 18.8125 12.3125 C27.08558637 17.68916088 35.3495054 23.07986278 43.61303711 28.47119141 C53.13045497 34.67969767 62.65810441 40.87240002 72.1875 47.0625 C83.67005402 54.52133165 95.14615842 61.98989103 106.61376953 69.47167969 C115.3147293 75.14755363 124.02406623 80.81046927 132.73583984 86.46972656 C136.05229965 88.62433558 139.36825288 90.77972332 142.68408203 92.93530273 C144.34243216 94.01321415 146.00095856 95.09085443 147.65966797 96.16821289 C151.99187688 98.98248344 156.32062887 101.80188708 160.64453125 104.62890625 C161.9893457 105.50675781 161.9893457 105.50675781 163.36132812 106.40234375 C165.06811114 107.5166166 166.77390865 108.6324011 168.47851562 109.75 C172.97072076 112.68018525 177.50112202 115.45339504 182.1875 118.0625 C178.50917573 126.46459652 170.24714482 130.42697086 162.21484375 133.84375 C161.26423569 134.26168823 160.31362762 134.67962646 159.33421326 135.11022949 C156.29163497 136.44277495 153.2403182 137.75360638 150.1875 139.0625 C148.16131776 139.94200986 146.13543813 140.82221719 144.10986328 141.703125 C139.02587023 143.90673284 133.93155597 146.08513176 128.83178711 148.25195312 C125.69753563 149.58481076 122.56651061 150.9250652 119.43554688 152.265625 C117.41685519 153.12544275 115.39798191 153.98483432 113.37890625 154.84375 C112.45598282 155.23953247 111.53305939 155.63531494 110.58216858 156.04309082 C108.12863301 157.0815432 105.66572548 158.08463202 103.1875 159.0625 C102.53153336 159.33067032 101.87556671 159.59884064 101.19972229 159.87513733 C98.02665007 161.01126944 96.49261863 161.18258633 93.32348633 159.93530273 C92.39818115 159.29536377 91.47287598 158.6554248 90.51953125 157.99609375 C89.47192627 157.28952637 88.42432129 156.58295898 87.3449707 155.85498047 C86.22980775 155.07023236 85.11482166 154.28523287 84 153.5 C82.8351995 152.70481283 81.66875508 151.91202869 80.50073242 151.12158203 C78.15114372 149.52851668 75.8091307 147.92522129 73.47265625 146.31298828 C69.03371735 143.27210401 64.52457341 140.34866322 60 137.4375 C58.38750468 136.39142021 56.77552898 135.34453901 55.1640625 134.296875 C54.35743164 133.77287109 53.55080078 133.24886719 52.71972656 132.70898438 C45.17753383 127.80495933 37.64529394 122.8856285 30.11083984 117.96972656 C25.30348019 114.83333992 20.49546012 111.69796604 15.6875 108.5625 C13.77083009 107.31250497 11.85416343 106.06250496 9.9375 104.8125 C8.98875 104.19375 8.04 103.575 7.0625 102.9375 C-3.47916667 96.0625 -14.02083333 89.1875 -24.5625 82.3125 C-25.51141113 81.69366943 -26.46032227 81.07483887 -27.43798828 80.43725586 C-29.35311803 79.18820869 -31.26815722 77.93902267 -33.18310547 76.68969727 C-37.99755102 73.54896944 -42.81358514 70.4107301 -47.6328125 67.27734375 C-52.40985567 64.17064303 -57.18107271 61.05516485 -61.94873047 57.93408203 C-63.89633332 56.66124968 -65.84595701 55.39150526 -67.79736328 54.12451172 C-70.70344546 52.23667438 -73.60235031 50.33824724 -76.5 48.4375 C-77.37930176 47.8695874 -78.25860352 47.3016748 -79.16455078 46.71655273 C-84.61893061 43.11890283 -89.02953552 40.19435791 -90.6875 33.5625 C-90.82311772 29.76520392 -90.81408397 28.26503436 -88.8125 25.0625 C-83.6292474 19.8856653 -77.87839242 16.01977658 -71.5625 12.375 C-69.80314513 11.34155479 -68.04403809 10.30768757 -66.28515625 9.2734375 C-64.93768311 8.48598145 -64.93768311 8.48598145 -63.56298828 7.68261719 C-60.79708905 6.0534225 -58.05056599 4.39567401 -55.30859375 2.7265625 C-54.41881836 2.18604248 -53.52904297 1.64552246 -52.61230469 1.08862305 C-50.91472943 0.05627518 -49.21867574 -0.97858037 -47.52441406 -2.01635742 C-30.24357723 -12.46685935 -16.5371242 -11.07869979 0 0 Z " fill="#282928" transform="translate(268.8125,241.9375)"/>
<path d="M0 0 C3.83271707 1.39481792 7.03544114 3.17939445 10.4375 5.421875 C11.48744141 6.11079834 12.53738281 6.79972168 13.61914062 7.50952148 C14.74634181 8.25597321 15.87328935 9.00280807 17 9.75 C18.1632834 10.51850443 19.32669632 11.28681283 20.49023438 12.05493164 C22.26499045 13.22705228 24.03927761 14.39985169 25.81213379 15.57484436 C29.53413807 18.04028307 33.27519784 20.47327948 37.03125 22.88671875 C50.64530813 31.68468481 63.94981884 40.29629703 68.55007935 56.79258728 C69.49883709 61.44740782 69.46880395 66.19848194 69.58984375 70.93359375 C69.62665756 72.14792587 69.66347137 73.362258 69.70140076 74.61338806 C70.16845436 91.17095059 70.35384047 107.73518963 70.53242874 124.29789352 C70.56284666 127.09436993 70.59462723 129.89082825 70.62667847 132.68728638 C71.09701512 174.12464831 71.10868979 215.56060052 71 257 C67.43279126 255.61605712 64.3799992 254.09222622 61.18359375 251.98046875 C59.80518311 251.07506348 59.80518311 251.07506348 58.39892578 250.15136719 C56.93302002 249.17925293 56.93302002 249.17925293 55.4375 248.1875 C53.36079823 246.8214304 51.28397309 245.45554832 49.20703125 244.08984375 C48.16498535 243.4026123 47.12293945 242.71538086 46.04931641 242.00732422 C41.58661211 239.06958565 37.10677986 236.15852059 32.625 233.25 C31.80725098 232.71866455 30.98950195 232.1873291 30.14697266 231.63989258 C22.10529131 226.41529412 14.05341326 221.20648845 6 216 C2.87482331 213.97943976 -0.25013869 211.95854795 -3.375 209.9375 C-4.09518311 209.4719873 -4.81536621 209.00647461 -5.55737305 208.52685547 C-6.22679932 208.0938916 -6.89622559 207.66092773 -7.5859375 207.21484375 C-8.1742334 206.83448975 -8.7625293 206.45413574 -9.36865234 206.06225586 C-10.9195674 205.05237388 -12.4601001 204.02659993 -14 203 C-14.20890808 199.99536133 -14.20890808 199.99536133 -13.97338867 196.08203125 C-13.93481247 195.3693811 -13.89623627 194.65673096 -13.85649109 193.92248535 C-13.72467373 191.5514269 -13.57113514 189.18226718 -13.41796875 186.8125 C-13.32250567 185.15462639 -13.22856028 183.49666475 -13.13606262 181.83862305 C-12.88791076 177.45194161 -12.62209394 173.06651527 -12.35174561 168.68115234 C-11.92533401 161.72039107 -11.52491925 154.75810109 -11.12554359 147.79574585 C-10.98491457 145.38859907 -10.83653164 142.98203571 -10.68681335 140.57543945 C-10.21714318 132.81541794 -9.89364428 125.06785755 -9.8371582 117.29296875 C-9.82723689 116.56370682 -9.81731558 115.83444489 -9.80709362 115.08308411 C-9.80572982 103.80449793 -13.95007073 92.26863974 -21.85717773 84.07568359 C-27.9327033 78.61949732 -34.45251933 74.24732945 -41.375 69.9375 C-42.43460937 69.26912109 -43.49421875 68.60074219 -44.5859375 67.91210938 C-46.68642385 66.58772184 -48.78891968 65.26651524 -50.89355469 63.94873047 C-55.61079287 60.98951991 -60.30569299 57.99540939 -65 55 C-62.38671222 51.66343726 -59.93054003 48.9535669 -56.5625 46.375 C-52.45853995 43.17161439 -48.45855122 39.8791944 -44.5 36.5 C-40.01329135 32.68082131 -35.47296008 28.94991207 -30.85546875 25.2890625 C-24.85955221 20.48248645 -18.95566785 15.56205825 -13.02832031 10.67138672 C-8.69602501 7.10146693 -4.34848734 3.55016893 0 0 Z " fill="#0D5D8F" transform="translate(385,72)"/>
<path d="M0 0 C4.36415954 1.51761187 7.96978584 3.84010444 11.75 6.4375 C13.09825707 7.34999534 14.44724203 8.26141592 15.796875 9.171875 C16.49232422 9.64173828 17.18777344 10.11160156 17.90429688 10.59570312 C21.24357647 12.83330054 24.62050363 15.0113061 28 17.1875 C34.78435399 21.56275136 41.55238025 25.96239359 48.3125 30.375 C55.53721743 35.09021017 62.76504717 39.80050893 70 44.5 C78.15097417 49.79483107 86.29330468 55.10282196 94.43359375 60.4140625 C100.6184738 64.44876277 106.80734192 68.47724931 113 72.5 C121.15095513 77.79486045 129.29330461 83.10282192 137.43359375 88.4140625 C143.61847399 92.4487629 149.80739754 96.47716348 156 100.5 C166.17335538 107.11042663 176.34313311 113.72621388 186.49658203 120.3671875 C188.70004671 121.80436048 190.90904238 123.2323497 193.12109375 124.65625 C194.76271484 125.72359375 194.76271484 125.72359375 196.4375 126.8125 C197.34371094 127.39644531 198.24992187 127.98039062 199.18359375 128.58203125 C200.08271484 129.28392578 200.08271484 129.28392578 201 130 C201 130.66 201 131.32 201 132 C194.28762599 134.86114989 187.57505523 137.7218377 180.86225414 140.58198547 C177.74295786 141.91105138 174.62372175 143.24025804 171.50463867 144.56982422 C164.41545197 147.59153833 157.32506494 150.61040189 150.23284912 153.625 C148.14747494 154.51195432 146.06252262 155.39990148 143.97808838 156.2890625 C141.31596206 157.4245856 138.65235409 158.55655298 135.98828125 159.6875 C134.84192451 160.17802856 134.84192451 160.17802856 133.67240906 160.6784668 C122.71941853 165.31402489 110.23120083 165.820023 99.02734375 161.50390625 C93.3686015 158.69278913 88.28523711 155.08392462 83.125 151.46679688 C79.30567409 148.83047908 75.39853551 146.32949893 71.5 143.8125 C69.78752704 142.70218277 68.07529258 141.59149763 66.36328125 140.48046875 C65.049646 139.628479 65.049646 139.628479 63.70947266 138.75927734 C59.0309432 135.72147925 54.35929161 132.67314607 49.6875 129.625 C48.72779297 128.99891846 47.76808594 128.37283691 46.77929688 127.7277832 C44.8272807 126.45431106 42.87529511 125.18079205 40.92333984 123.90722656 C38.02850492 122.018597 35.13344343 120.13031536 32.23828125 118.2421875 C30.81757324 117.31563354 30.81757324 117.31563354 29.36816406 116.37036133 C27.45484322 115.12266377 25.54143164 113.87510534 23.62792969 112.62768555 C18.82112529 109.49378954 14.01616767 106.35713082 9.21484375 103.21484375 C-0.06848882 97.14334346 -9.37322605 91.11380548 -18.75 85.1875 C-28.54601012 78.99318823 -38.19452936 72.58914636 -47.81542969 66.12768555 C-53.48872261 62.32163273 -59.17883605 58.57626252 -65 55 C-62.01517739 50.93044917 -58.62737 47.94817166 -54.625 44.9375 C-49.62082228 41.09500639 -44.75886366 37.14232255 -40 33 C-34.87766384 28.55105282 -29.63303519 24.3138465 -24.26977539 20.15991211 C-18.70976865 15.82850643 -13.37924962 11.24897754 -8.05859375 6.62890625 C-5.4269743 4.34838917 -2.73585238 2.1550569 0 0 Z " fill="#272928" transform="translate(180,333)"/>
</svg>
