<?xml version="1.0" encoding="UTF-8"?>
<svg version="1.1" xmlns="http://www.w3.org/2000/svg" width="500" height="500">
<path d="M0 0 C1.13824219 -0.02578125 2.27648437 -0.0515625 3.44921875 -0.078125 C11.99748735 0.64791601 18.85886066 3.72027711 26 8.3125 C27.16426514 9.04267334 27.16426514 9.04267334 28.35205078 9.78759766 C34.41965672 13.61539162 40.39668909 17.57810555 46.34375 21.58984375 C50.92484442 24.67390196 55.55491056 27.68155417 60.1875 30.6875 C61.03940918 31.24034668 61.89131836 31.79319336 62.76904297 32.36279297 C68.11435783 35.82906239 73.46323585 39.28982937 78.8125 42.75 C105.53876425 60.0378796 105.53876425 60.0378796 114.8125 66.25 C120.51164725 70.06758083 126.24698179 73.82660855 132 77.5625 C132.83926025 78.10817627 133.67852051 78.65385254 134.54321289 79.21606445 C138.87847335 82.03185964 143.22172475 84.8342013 147.578125 87.6171875 C182.14030511 109.74800118 182.14030511 109.74800118 186.3125 128.25 C186.78707888 132.48816171 186.88958761 136.70670727 186.96484375 140.96875 C187.01329689 142.84487976 187.01329689 142.84487976 187.06272888 144.75891113 C187.14912776 148.20014224 187.21551354 151.64145916 187.27498627 155.08325195 C187.31274032 157.2638805 187.35352709 159.44443615 187.39483643 161.625 C187.58970502 172.11797149 187.7265312 182.61136993 187.84492874 193.10545349 C187.87539099 195.78438501 187.90716999 198.46329846 187.93917847 201.14221191 C188.4320772 242.84426488 188.41793451 284.54575016 188.3125 326.25 C185.20757647 325.03640458 182.45129153 323.8374963 179.6953125 321.95703125 C179.01855469 321.49981689 178.34179688 321.04260254 177.64453125 320.5715332 C176.55205078 319.82456177 176.55205078 319.82456177 175.4375 319.0625 C173.81584629 317.96764998 172.19341323 316.87395367 170.5703125 315.78125 C169.7134082 315.20375 168.85650391 314.62625 167.97363281 314.03125 C163.44647599 311.00096228 158.87939808 308.0324184 154.3125 305.0625 C152.36847425 303.79689855 150.42446419 302.531273 148.48046875 301.265625 C147.48321777 300.61658203 146.4859668 299.96753906 145.45849609 299.29882812 C140.40442935 296.0073701 135.35422651 292.71001167 130.30541992 289.41049194 C128.68503679 288.35172823 127.06420663 287.29364877 125.44335938 286.2355957 C123.40857341 284.90579146 121.38368763 283.56069958 119.36962891 282.19970703 C116.3130409 280.17608653 116.3130409 280.17608653 112.87646484 278.53076172 C109.4585326 276.70088881 106.931652 275.1141189 104.3125 272.25 C103.13804248 267.68846852 103.55172063 263.46627087 104.0546875 258.84716797 C104.44906307 254.8742823 104.60664363 250.89368798 104.79956055 246.90673828 C105.15111188 239.82802643 105.5982425 232.75433238 106.03076172 225.68017578 C106.78947962 213.16735198 107.46277452 200.66234558 107.59375 188.125 C107.61320679 187.17214111 107.63266357 186.21928223 107.65270996 185.23754883 C107.67620338 173.49606178 103.58421447 162.51906585 96 153.5 C95.113125 152.7575 94.22625 152.015 93.3125 151.25 C92.44625 150.50943359 92.44625 150.50943359 91.5625 149.75390625 C86.46117359 145.57043213 80.97377709 142.08768184 75.36499023 138.63916016 C68.68742096 134.52186719 62.12157253 130.24033994 55.5625 125.9375 C54.43540441 125.19878088 53.30828851 124.46009275 52.18115234 123.72143555 C49.95267597 122.26068933 47.72456016 120.79939709 45.49658203 119.33789062 C38.48370794 114.73935518 31.46370338 110.1524135 24.41503906 105.60888672 C23.07831271 104.74495048 21.74403274 103.87720823 20.41308594 103.00439453 C7.45711964 94.51167617 -5.41020988 88.54683255 -21.1875 90.875 C-33.58313702 93.67186847 -44.97608985 100.25153046 -56.25 105.9375 C-57.87134911 106.7516046 -59.49276888 107.56556847 -61.11425781 108.37939453 C-69.80630499 112.74925311 -78.47194303 117.16189633 -87.04833984 121.75561523 C-91.28605519 124.01752642 -95.5591972 126.18704537 -99.87109375 128.3046875 C-100.94907227 128.83529785 -102.02705078 129.3659082 -103.13769531 129.91259766 C-105.22852006 130.93782711 -107.32271127 131.95623228 -109.42089844 132.96630859 C-116.84218899 136.60705944 -123.94479349 140.57161686 -129.1875 147.125 C-129.6721875 147.72054687 -130.156875 148.31609375 -130.65625 148.9296875 C-130.9965625 149.36539063 -131.336875 149.80109375 -131.6875 150.25 C-135.22280301 148.93592419 -138.28718386 147.37648647 -141.4609375 145.34375 C-142.36046143 144.76987549 -143.25998535 144.19600098 -144.18676758 143.60473633 C-145.61025513 142.68664185 -145.61025513 142.68664185 -147.0625 141.75 C-148.04694092 141.11924561 -149.03138184 140.48849121 -150.0456543 139.83862305 C-156.1684637 135.90492427 -162.25188208 131.91675847 -168.29248047 127.8581543 C-173.41064066 124.42067781 -178.57903416 121.06529449 -183.76171875 117.72607422 C-188.09824151 114.93031328 -192.42288268 112.11734783 -196.73828125 109.2890625 C-197.77533203 108.60996826 -198.81238281 107.93087402 -199.88085938 107.23120117 C-201.92885744 105.88932642 -203.97576895 104.54579157 -206.02148438 103.20043945 C-207.42817383 102.27944458 -207.42817383 102.27944458 -208.86328125 101.33984375 C-209.69770752 100.79191162 -210.53213379 100.24397949 -211.3918457 99.67944336 C-213.44669152 98.39994509 -215.50273643 97.28789616 -217.6875 96.25 C-216.29127777 93.0344579 -214.69280567 91.0554472 -212.0625 88.75 C-211.43085938 88.1828125 -210.79921875 87.615625 -210.1484375 87.03125 C-204.6081674 83.02114974 -198.08818047 80.48342852 -191.80859375 77.84375 C-190.6865731 77.36826721 -190.6865731 77.36826721 -189.54188538 76.88317871 C-187.07056824 75.83645792 -184.5977708 74.79328143 -182.125 73.75 C-180.35664609 73.00159677 -178.58841989 72.25289172 -176.8203125 71.50390625 C-174.02207752 70.31862645 -171.22374798 69.13357423 -168.42501831 67.94946289 C-158.66294765 63.81915389 -148.9099488 59.66761663 -139.15750122 55.51464844 C-134.17823358 53.39443953 -129.19850176 51.27532156 -124.21875 49.15625 C-123.24297501 48.74101074 -122.26720001 48.32577148 -121.26185608 47.89794922 C-111.73837569 43.84556118 -102.21309175 39.79742194 -92.6875 35.75 C-78.68383554 29.79964353 -64.68152814 23.84610309 -50.68066406 17.88916016 C-48.63349053 17.01816572 -46.58629086 16.14723274 -44.5390625 15.27636719 C-42.60022059 14.45158796 -40.66143729 13.62667095 -38.72271729 12.80160522 C-36.88518942 12.01980962 -35.04742718 11.23856459 -33.20941162 10.45791626 C-29.26237801 8.78006669 -25.31950179 7.09478111 -21.39160156 5.37255859 C-20.42626999 4.95129951 -20.42626999 4.95129951 -19.44143677 4.52153015 C-17.78231786 3.79585984 -16.12565224 3.06458725 -14.46923828 2.33276367 C-9.63176977 0.44982767 -5.16864947 0.06945554 0 0 Z " fill="#FEFEFE" transform="translate(260.6875,2.75)"/>
<path d="M0 0 C1.74464349 0.9406404 3.48795517 1.8837512 5.23071289 2.82788086 C6.68713951 3.61526894 6.68713951 3.61526894 8.17298889 4.41856384 C12.07274754 6.6000973 15.75302406 9.03968318 19.4375 11.5625 C20.99668966 12.6156296 22.55661344 13.66767296 24.1171875 14.71875 C25.31553223 15.52699219 25.31553223 15.52699219 26.53808594 16.3515625 C30.68644264 19.12920078 34.87340199 21.84684233 39.0625 24.5625 C39.89934326 25.10503418 40.73618652 25.64756836 41.59838867 26.20654297 C43.26276987 27.28489266 44.92739841 28.36286068 46.59228516 29.44042969 C48.89016862 30.92885795 51.18569007 32.42085322 53.48046875 33.9140625 C62.92112894 40.05049162 72.4360794 46.0577676 82 52 C81.38575981 70.55757964 80.49945987 89.08805481 79.4375 107.625 C79.16247288 112.42952933 78.89080159 117.23423197 78.62109375 122.0390625 C78.55860947 123.11096832 78.49612518 124.18287415 78.43174744 125.28726196 C77.52385289 141.47428091 77.96365366 157.01494546 88.875 170.125 C94.20671664 175.63181406 100.37958295 179.58634811 106.83544922 183.63427734 C109.08387697 185.05292215 111.31121546 186.50032411 113.53515625 187.95703125 C120.62415659 192.60019568 127.73855025 197.20230966 134.88671875 201.75390625 C146.61769269 209.22443311 158.25982588 216.80396541 169.81152344 224.54742432 C176.76173786 229.20417578 183.74022319 233.78874874 190.86645508 238.17211914 C197.23490263 242.10515672 203.49063154 246.20884625 209.75 250.3125 C210.3117392 250.68073883 210.87347839 251.04897766 211.45223999 251.42837524 C214.2506848 253.26315649 217.04874251 255.09852671 219.84667969 256.93408203 C224.34895388 259.88377576 228.86069267 262.81876628 233.375 265.75 C234.17647461 266.27053955 234.97794922 266.7910791 235.80371094 267.32739258 C237.40129829 268.3648522 238.99895392 269.40220668 240.59667969 270.43945312 C244.73214125 273.12473048 248.86597019 275.81251919 253 278.5 C254.66665923 279.58334477 256.33332589 280.66667812 258 281.75 C268 288.25 278 294.75 288 301.25 C288.82564453 301.78665283 289.65128906 302.32330566 290.50195312 302.8762207 C292.16216892 303.95539342 293.82232555 305.03465718 295.48242188 306.11401367 C300.62328342 309.45628039 305.76650311 312.79488432 310.91113281 316.13134766 C313.42728112 317.76527799 315.94048271 319.40365359 318.453125 321.04296875 C321.2646236 322.87678456 324.08553602 324.6931579 326.921875 326.48828125 C328.02015625 327.19339844 329.1184375 327.89851563 330.25 328.625 C331.64992188 329.51058594 331.64992188 329.51058594 333.078125 330.4140625 C333.71234375 330.93742187 334.3465625 331.46078125 335 332 C335 332.99 335 333.98 335 335 C292.08985424 353.62884014 292.08985424 353.62884014 274 361.125 C272.82284424 361.61452148 271.64568848 362.10404297 270.43286133 362.60839844 C269.36189209 363.04958008 268.29092285 363.49076172 267.1875 363.9453125 C266.27355469 364.32187988 265.35960937 364.69844727 264.41796875 365.08642578 C260.03041409 366.74416301 256.20035965 367.21192924 251.5 367.3125 C250.3759375 367.34988281 249.251875 367.38726562 248.09375 367.42578125 C238.37497198 366.89482366 229.84217627 362.16088434 221.9375 356.875 C221.01630371 356.27461914 220.09510742 355.67423828 219.14599609 355.05566406 C216.08604799 353.05365781 213.04167363 351.02965393 210 349 C208.8729543 348.24956906 207.74583683 347.49924589 206.61865234 346.74902344 C201.9457403 343.63710802 197.2754116 340.52137453 192.61132812 337.39624023 C186.1826606 333.09244085 179.71650657 328.87788162 173.12768555 324.82397461 C166.82555188 320.93092597 160.63244766 316.87323176 154.4375 312.8125 C153.6036377 312.26597275 153.6036377 312.26597275 152.75292969 311.70840454 C150.4995137 310.23114977 148.24637647 308.75347136 145.99365234 307.27516174 C140.31466067 303.54863201 134.62721839 299.83512472 128.9375 296.125 C127.98762207 295.5055249 127.03774414 294.8860498 126.05908203 294.24780273 C119.80866787 290.17364834 113.54908577 286.11392135 107.28344727 282.06323242 C83.01802903 266.37576312 83.01802903 266.37576312 73.5 260 C67.80085275 256.18241917 62.06551821 252.42339145 56.3125 248.6875 C55.47323975 248.14182373 54.63397949 247.59614746 53.76928711 247.03393555 C49.43402665 244.21814036 45.09077525 241.4157987 40.734375 238.6328125 C6.12251011 216.47018471 6.12251011 216.47018471 2 199 C1.50586902 194.27937023 1.42164548 189.5718622 1.34765625 184.828125 C1.31605813 183.4177215 1.28340138 182.00734137 1.24977112 180.59698486 C1.16437557 176.83214713 1.09787493 173.06722475 1.03751373 169.3019104 C1.00051388 167.03153288 0.95970454 164.76125611 0.91766357 162.4909668 C0.72732848 152.10856062 0.58718386 141.72585291 0.46757126 131.34241104 C0.43704431 128.71071506 0.40527876 126.07903615 0.37332153 123.44735718 C-0.12080356 82.29880364 -0.10527063 41.15079154 0 0 Z " fill="#0D5E90" transform="translate(38,130)"/>
<path d="M0 0 C3.84471546 2.61419765 7.75347451 5.12949167 11.65722656 7.65429688 C13.36570029 8.76215332 15.0740304 9.87023126 16.78222656 10.97851562 C17.6575 11.54618652 18.53277344 12.11385742 19.43457031 12.69873047 C24.18034377 15.78058945 28.91847 18.87416394 33.65722656 21.96679688 C40.88259564 26.68098685 48.1108677 31.39064402 55.34472656 36.09179688 C56.16102539 36.62248779 56.97732422 37.15317871 57.81835938 37.69995117 C61.87793215 40.33851232 65.93957763 42.97379435 70.00488281 45.60351562 C79.10020875 51.49252327 88.14931488 57.44480262 97.15722656 63.46679688 C106.91413002 69.98947469 116.72736376 76.417931 126.57958984 82.79541016 C131.2787304 85.8424187 135.96722151 88.9057541 140.65722656 91.96679688 C142.58037096 93.22075326 144.50354788 94.47465977 146.42675781 95.72851562 C150.25964811 98.22782917 154.09001057 100.73095963 157.91894531 103.23632812 C159.72750207 104.41737436 161.53609424 105.59836636 163.34472656 106.77929688 C164.17617188 107.32457031 165.00761719 107.86984375 165.86425781 108.43164062 C167.02054687 109.18574219 167.02054687 109.18574219 168.20019531 109.95507812 C168.87074951 110.39376221 169.54130371 110.83244629 170.23217773 111.28442383 C172.15965552 112.46828875 174.11964809 113.48674973 176.15722656 114.46679688 C174.76100433 117.68233898 173.16253224 119.66134967 170.53222656 121.96679688 C169.90058594 122.53398437 169.26894531 123.10117187 168.61816406 123.68554688 C162.52021962 128.09929714 155.21499342 130.79821653 148.30566406 133.69726562 C147.37033844 134.09198563 146.43501282 134.48670563 145.47134399 134.89338684 C143.49346729 135.72745734 141.51505305 136.56025414 139.53613281 137.3918457 C136.58829053 138.63073488 133.6421455 139.87358486 130.69628906 141.1171875 C126.81354038 142.7562644 122.92435376 144.37875968 119.03149414 145.99365234 C115.01255584 147.66712195 111.03563835 149.41337826 107.07006836 151.20947266 C106.08338165 151.64407303 105.09669495 152.0786734 104.08010864 152.52644348 C102.20577722 153.35230807 100.34093734 154.200192 98.48825073 155.0735321 C92.39314526 157.71406768 92.39314526 157.71406768 88.90467834 157.01612854 C85.35004714 155.52654597 82.26870746 153.52781245 79.39550781 150.95507812 C74.54512881 146.85469732 69.25822713 143.55843654 63.90722656 140.15429688 C61.92483254 138.8616718 59.94435935 137.5660961 57.96582031 136.26757812 C52.64086968 132.78137059 47.30737554 129.30852279 41.96972656 125.84179688 C41.15665039 125.31352295 40.34357422 124.78524902 39.50585938 124.2409668 C37.87357653 123.18043762 36.2412525 122.11997183 34.60888672 121.05957031 C30.45783273 118.36274934 26.30757419 115.66470474 22.15722656 112.96679688 C20.49056361 111.88345782 18.82389695 110.80012449 17.15722656 109.71679688 C13.82389323 107.55013021 10.4905599 105.38346354 7.15722656 103.21679688 C6.33246826 102.68070801 5.50770996 102.14461914 4.65795898 101.59228516 C2.98883604 100.5073471 1.319728 99.4223861 -0.34936523 98.33740234 C-4.47832986 95.6534345 -8.60754033 92.96984656 -12.73730469 90.28710938 C-23.4882722 83.3024589 -34.23099001 76.30526296 -44.96777344 69.29882812 C-48.90339838 66.73083285 -52.84103504 64.16596428 -56.78027344 61.60351562 C-61.5651702 58.4906028 -66.34455123 55.36936654 -71.12109375 52.24365234 C-73.79209852 50.49988013 -76.46952663 48.76630779 -79.14746094 47.03320312 C-80.77537624 45.96987722 -82.40299697 44.90610017 -84.03027344 43.84179688 C-84.76673096 43.36911377 -85.50318848 42.89643066 -86.26196289 42.40942383 C-90.92243735 39.34200033 -95.1061861 36.5306387 -96.47949219 30.81835938 C-96.49625 29.91859375 -96.51300781 29.01882813 -96.53027344 28.09179688 C-96.57539063 27.1971875 -96.62050781 26.30257812 -96.66699219 25.38085938 C-93.92613765 15.69044476 -81.37255377 10.70337427 -73.28027344 6.02929688 C-71.88843102 5.2145084 -70.49715091 4.39875858 -69.10644531 3.58203125 C-65.69485566 1.58247799 -62.27362341 -0.39976618 -58.8477478 -2.37472534 C-56.84832732 -3.52999408 -54.85369403 -4.69319976 -52.85961914 -5.85766602 C-51.60935645 -6.58309366 -50.35895602 -7.30828397 -49.10839844 -8.03320312 C-48.01172852 -8.67128906 -46.91505859 -9.309375 -45.78515625 -9.96679688 C-29.12285214 -18.83713733 -13.83474451 -9.51913992 0 0 Z " fill="#FFFFFF" transform="translate(267.8427734375,245.533203125)"/>
<path d="M0 0 C5.21680447 1.71785682 9.52258508 4.80386904 14.0625 7.8125 C15.85655854 8.99251032 17.65083572 10.1721883 19.4453125 11.3515625 C20.82251465 12.25890137 20.82251465 12.25890137 22.22753906 13.18457031 C24.90891951 14.94035976 27.60334375 16.67355568 30.3046875 18.3984375 C64.81985212 40.46273292 64.81985212 40.46273292 69 59 C69.47457888 63.23816171 69.57708761 67.45670727 69.65234375 71.71875 C69.68464584 72.96950317 69.71694794 74.22025635 69.75022888 75.50891113 C69.83662776 78.95014224 69.90301354 82.39145916 69.96248627 85.83325195 C70.00024032 88.0138805 70.04102709 90.19443615 70.08233643 92.375 C70.27720502 102.86797149 70.4140312 113.36136993 70.53242874 123.85545349 C70.56289099 126.53438501 70.59466999 129.21329846 70.62667847 131.89221191 C71.1195772 173.59426488 71.10543451 215.29575016 71 257 C67.89507647 255.78640458 65.13879153 254.5874963 62.3828125 252.70703125 C61.70605469 252.24981689 61.02929688 251.79260254 60.33203125 251.3215332 C59.60371094 250.82355225 58.87539063 250.32557129 58.125 249.8125 C56.50334629 248.71764998 54.88091323 247.62395367 53.2578125 246.53125 C52.4009082 245.95375 51.54400391 245.37625 50.66113281 244.78125 C46.13397599 241.75096228 41.56689808 238.7824184 37 235.8125 C35.05597425 234.54689855 33.11196419 233.281273 31.16796875 232.015625 C30.17071777 231.36658203 29.1734668 230.71753906 28.14599609 230.04882812 C23.09192935 226.7573701 18.04172651 223.46001167 12.99291992 220.16049194 C11.37253679 219.10172823 9.75170663 218.04364877 8.13085938 216.9855957 C6.09607341 215.65579146 4.07118763 214.31069958 2.05712891 212.94970703 C-0.9994591 210.92608653 -0.9994591 210.92608653 -4.43603516 209.28076172 C-7.8539674 207.45088881 -10.380848 205.8641189 -13 203 C-14.17445752 198.43846852 -13.76077937 194.21627087 -13.2578125 189.59716797 C-12.86343693 185.6242823 -12.70585637 181.64368798 -12.51293945 177.65673828 C-12.16138812 170.57802643 -11.7142575 163.50433238 -11.28173828 156.43017578 C-10.52302038 143.91735198 -9.84972548 131.41234558 -9.71875 118.875 C-9.68956482 117.44571167 -9.68956482 117.44571167 -9.65979004 115.98754883 C-9.63629662 104.24606178 -13.72828553 93.26906585 -21.3125 84.25 C-22.199375 83.5075 -23.08625 82.765 -24 82 C-24.5775 81.50628906 -25.155 81.01257813 -25.75 80.50390625 C-31.08049125 76.1324996 -36.81784449 72.52886667 -42.67700195 68.92553711 C-49.91167332 64.47166867 -56.96015586 59.75391774 -64 55 C-62.4378343 50.82120674 -59.35599171 48.48518593 -56 45.75 C-55.12432373 45.02321045 -55.12432373 45.02321045 -54.23095703 44.28173828 C-50.00416506 40.78541733 -45.73033531 37.3473941 -41.43359375 33.9375 C-33.30085912 27.46264225 -25.31929238 20.79524137 -17.296875 14.18457031 C-11.54194826 9.44323653 -5.77601972 4.71562733 0 0 Z " fill="#0D5E90" transform="translate(378,72)"/>
<path d="M0 0 C3.58622125 1.32308351 6.62984109 2.91427493 9.81640625 5.01953125 C11.19445435 5.92469482 11.19445435 5.92469482 12.6003418 6.84814453 C13.577854 7.49638184 14.55536621 8.14461914 15.5625 8.8125 C17.64310587 10.18117703 19.72383724 11.54966331 21.8046875 12.91796875 C22.8472168 13.60552246 23.88974609 14.29307617 24.96386719 15.00146484 C29.35950272 17.894893 33.77264825 20.76101435 38.1875 23.625 C39.82688588 24.69000725 41.46620891 25.75511126 43.10546875 26.8203125 C43.91161621 27.34399414 44.71776367 27.86767578 45.54833984 28.40722656 C49.69939383 31.10404754 53.84965238 33.80209214 58 36.5 C59.66666295 37.58333905 61.33332961 38.66667239 63 39.75 C93 59.25 123 78.75 153 98.25 C153.82564453 98.78665283 154.65128906 99.32330566 155.50195312 99.8762207 C157.16216892 100.95539342 158.82232555 102.03465718 160.48242188 103.11401367 C165.62328342 106.45628039 170.76650311 109.79488432 175.91113281 113.13134766 C178.42728112 114.76527799 180.94048271 116.40365359 183.453125 118.04296875 C186.2646236 119.87678456 189.08553602 121.6931579 191.921875 123.48828125 C193.02015625 124.19339844 194.1184375 124.89851563 195.25 125.625 C196.64992188 126.51058594 196.64992188 126.51058594 198.078125 127.4140625 C198.71234375 127.93742187 199.3465625 128.46078125 200 129 C200 129.99 200 130.98 200 132 C157.08985424 150.62884014 157.08985424 150.62884014 139 158.125 C137.82284424 158.61452148 136.64568848 159.10404297 135.43286133 159.60839844 C134.36189209 160.04958008 133.29092285 160.49076172 132.1875 160.9453125 C131.27355469 161.32187988 130.35960937 161.69844727 129.41796875 162.08642578 C125.03041409 163.74416301 121.20035965 164.21192924 116.5 164.3125 C115.3759375 164.34988281 114.251875 164.38726562 113.09375 164.42578125 C103.37497198 163.89482366 94.84217627 159.16088434 86.9375 153.875 C86.01630371 153.27461914 85.09510742 152.67423828 84.14599609 152.05566406 C81.08604799 150.05365781 78.04167363 148.02965393 75 146 C73.8729543 145.24956906 72.74583683 144.49924589 71.61865234 143.74902344 C66.9457403 140.63710802 62.2754116 137.52137453 57.61132812 134.39624023 C51.1826606 130.09244085 44.71650657 125.87788162 38.12768555 121.82397461 C31.82555188 117.93092597 25.63244766 113.87323176 19.4375 109.8125 C18.8815918 109.4481485 18.32568359 109.083797 17.75292969 108.70840454 C15.4995137 107.23114977 13.24637647 105.75347136 10.99365234 104.27516174 C5.31466067 100.54863201 -0.37278161 96.83512472 -6.0625 93.125 C-7.01237793 92.5055249 -7.96225586 91.8860498 -8.94091797 91.24780273 C-14.51661239 87.61344518 -20.09831443 83.988572 -25.6875 80.375 C-26.35346191 79.94429199 -27.01942383 79.51358398 -27.70556641 79.06982422 C-30.6385303 77.17310365 -33.5716402 75.27661426 -36.50585938 73.38183594 C-56.01954057 60.77533248 -56.01954057 60.77533248 -64 55 C-62.48318506 51.18653872 -60.25546974 49.32747903 -57.0625 46.8125 C-56.07378906 46.02488281 -55.08507812 45.23726563 -54.06640625 44.42578125 C-52.54853516 43.22501953 -52.54853516 43.22501953 -51 42 C-49.16368682 40.50364943 -47.33027886 39.00372551 -45.5 37.5 C-42.8210008 35.30774854 -40.14175792 33.11580532 -37.4609375 30.92578125 C-31.05887523 25.69388444 -24.67455423 20.44074948 -18.29443359 15.18212891 C-13.17666473 10.96512422 -8.04724617 6.76289183 -2.90625 2.57421875 C-1.1096146 1.14127035 -1.1096146 1.14127035 0 0 Z " fill="#FEFEFE" transform="translate(173,333)"/>
</svg>
